<svg width="21" height="21" viewBox="0 0 21 21" fill="none" xmlns="http://www.w3.org/2000/svg">
<path fill-rule="evenodd" clip-rule="evenodd" d="M15.2855 5.71785C15.3196 5.77756 15.3794 5.8202 15.4563 5.8202C17.5056 5.8202 19.1792 7.49195 19.1792 9.53899V14.6054C19.1792 16.6525 17.5056 18.3242 15.4563 18.3242H5.82448C3.76663 18.3242 2.10156 16.6525 2.10156 14.6054V9.53899C2.10156 7.49195 3.76663 5.8202 5.82448 5.8202C5.8928 5.8202 5.96111 5.78609 5.98672 5.71785L6.03796 5.6155C6.06739 5.55355 6.09759 5.48993 6.12826 5.42533C6.34671 4.96521 6.58838 4.45616 6.73814 4.15698C7.13092 3.38934 7.79695 2.96288 8.62522 2.95435H12.647C13.4753 2.96288 14.1498 3.38934 14.5426 4.15698C14.6771 4.42566 14.882 4.85846 15.0795 5.27559C15.1202 5.36166 15.1607 5.44705 15.2001 5.5302L15.2855 5.71785ZM14.663 8.99306C14.663 9.41953 15.0045 9.7607 15.4314 9.7607C15.8584 9.7607 16.2085 9.41953 16.2085 8.99306C16.2085 8.56659 15.8584 8.21689 15.4314 8.21689C15.0045 8.21689 14.663 8.56659 14.663 8.99306ZM9.16367 10.3153C9.565 9.91441 10.0859 9.70118 10.6409 9.70118C11.1959 9.70118 11.7168 9.91441 12.1096 10.3068C12.5023 10.6991 12.7158 11.2194 12.7158 11.7738C12.7073 12.9167 11.7851 13.8464 10.6409 13.8464C10.0859 13.8464 9.565 13.6332 9.17221 13.2408C8.77943 12.8485 8.56596 12.3282 8.56596 11.7738V11.7653C8.55742 11.2279 8.77089 10.7076 9.16367 10.3153ZM13.006 14.1448C12.3998 14.7504 11.563 15.1257 10.6408 15.1257C9.74422 15.1257 8.90742 14.776 8.267 14.1448C7.63513 13.5051 7.28504 12.6692 7.28504 11.7736C7.2765 10.8866 7.62659 10.0507 8.25847 9.41101C8.89888 8.77131 9.74422 8.4216 10.6408 8.4216C11.5374 8.4216 12.3827 8.77131 13.0146 9.40248C13.6465 10.0422 13.9965 10.8866 13.9965 11.7736C13.988 12.7033 13.6123 13.5392 13.006 14.1448Z" fill="#9D9AF9"/>
</svg>
