<svg width="38" height="38" viewBox="0 0 38 38" fill="none" xmlns="http://www.w3.org/2000/svg">
<path d="M9.63581 37.8656C7.37593 37.7628 6.1483 37.3867 5.33177 37.0683C4.24983 36.647 3.47847 36.1456 2.66645 35.3347C1.85443 34.5238 1.35186 33.7524 0.932862 32.6705C0.614379 31.854 0.238298 30.6263 0.135525 28.3665C0.0225875 25.9236 0 25.1907 0 19.0017C0 12.8127 0.0248462 12.0809 0.134395 9.63581C0.237168 7.37593 0.615508 6.15056 0.931732 5.33177C1.35299 4.24983 1.85556 3.47847 2.66532 2.66532C3.47621 1.85443 4.24757 1.35073 5.33064 0.931732C6.14718 0.613249 7.3748 0.237168 9.63468 0.134395C12.0786 0.0225875 12.8127 0 18.9994 0C25.1884 0 25.9202 0.0248462 28.3653 0.134395C30.6252 0.237168 31.8506 0.615508 32.6694 0.931732C33.7513 1.35073 34.5227 1.85443 35.3347 2.66532C36.1467 3.47621 36.647 4.2487 37.0683 5.33064C37.3867 6.14718 37.7628 7.3748 37.8656 9.63468C37.9774 12.0798 38 12.8116 38 19.0006C38 25.1873 37.9774 25.9214 37.8656 28.3665C37.7628 30.6263 37.3845 31.854 37.0683 32.6705C36.647 33.7524 36.1456 34.5238 35.3347 35.3347C34.5238 36.1456 33.7513 36.647 32.6694 37.0683C31.8528 37.3867 30.6252 37.7628 28.3653 37.8656C25.9225 37.9774 25.1884 38 18.9994 38C12.8127 38 12.0786 37.9785 9.63581 37.8656Z" fill="url(#paint0_radial_14322_8083)"/>
<path d="M9.63581 37.8656C7.37593 37.7628 6.1483 37.3867 5.33177 37.0683C4.24983 36.647 3.47847 36.1456 2.66645 35.3347C1.85443 34.5238 1.35186 33.7524 0.932862 32.6705C0.614379 31.854 0.238298 30.6263 0.135525 28.3665C0.0225875 25.9236 0 25.1907 0 19.0017C0 12.8127 0.0248462 12.0809 0.134395 9.63581C0.237168 7.37593 0.615508 6.15056 0.931732 5.33177C1.35299 4.24983 1.85556 3.47847 2.66532 2.66532C3.47621 1.85443 4.24757 1.35073 5.33064 0.931732C6.14718 0.613249 7.3748 0.237168 9.63468 0.134395C12.0786 0.0225875 12.8127 0 18.9994 0C25.1884 0 25.9202 0.0248462 28.3653 0.134395C30.6252 0.237168 31.8506 0.615508 32.6694 0.931732C33.7513 1.35073 34.5227 1.85443 35.3347 2.66532C36.1467 3.47621 36.647 4.2487 37.0683 5.33064C37.3867 6.14718 37.7628 7.3748 37.8656 9.63468C37.9774 12.0798 38 12.8116 38 19.0006C38 25.1873 37.9774 25.9214 37.8656 28.3665C37.7628 30.6263 37.3845 31.854 37.0683 32.6705C36.647 33.7524 36.1456 34.5238 35.3347 35.3347C34.5238 36.1456 33.7513 36.647 32.6694 37.0683C31.8528 37.3867 30.6252 37.7628 28.3653 37.8656C25.9225 37.9774 25.1884 38 18.9994 38C12.8127 38 12.0786 37.9785 9.63581 37.8656Z" fill="url(#paint1_radial_14322_8083)"/>
<path d="M14.6889 18.8655C14.6889 16.5585 16.5586 14.6878 18.8656 14.6878C21.1726 14.6878 23.0433 16.5585 23.0433 18.8655C23.0433 21.1725 21.1726 23.0432 18.8656 23.0432C16.5586 23.0432 14.6889 21.1725 14.6889 18.8655ZM12.4305 18.8655C12.4305 22.4196 15.3115 25.3005 18.8656 25.3005C22.4197 25.3005 25.3007 22.4196 25.3007 18.8655C25.3007 15.3114 22.4197 12.4304 18.8656 12.4304C15.3115 12.4304 12.4306 15.3112 12.4306 18.8655M24.0517 12.1752C24.0515 12.4727 24.1396 12.7635 24.3048 13.0108C24.4699 13.2582 24.7047 13.451 24.9795 13.565C25.2542 13.6789 25.5566 13.7088 25.8483 13.6509C26.14 13.593 26.4081 13.4499 26.6185 13.2396C26.8289 13.0294 26.9722 12.7615 27.0303 12.4698C27.0885 12.1781 27.0588 11.8757 26.9451 11.6009C26.8314 11.3261 26.6387 11.0911 26.3915 10.9258C26.1443 10.7604 25.8535 10.6721 25.5561 10.672H25.5555C25.1568 10.6722 24.7745 10.8306 24.4925 11.1124C24.2106 11.3943 24.052 11.7765 24.0517 12.1752ZM13.8026 29.0664C12.5808 29.0107 11.9167 28.8072 11.4754 28.6353C10.8903 28.4075 10.4728 28.1362 10.0339 27.6979C9.59495 27.2595 9.32325 26.8425 9.09647 26.2574C8.92443 25.8163 8.72091 25.1519 8.66537 23.9301C8.60461 22.6091 8.59248 22.2123 8.59248 18.8657C8.59248 15.519 8.60561 15.1233 8.66537 13.8012C8.72101 12.5794 8.92603 11.9164 9.09647 11.4739C9.32425 10.8888 9.59555 10.4714 10.0339 10.0324C10.4722 9.59352 10.8893 9.32182 11.4754 9.09504C11.9165 8.923 12.5808 8.71948 13.8026 8.66394C15.1236 8.60318 15.5204 8.59105 18.8656 8.59105C22.2107 8.59105 22.608 8.60399 23.93 8.66414C25.1519 8.71978 25.8149 8.92481 26.2573 9.09524C26.8424 9.32203 27.2599 9.59432 27.6988 10.0326C28.1377 10.471 28.4084 10.889 28.6362 11.4741C28.8082 11.9153 29.0118 12.5796 29.0673 13.8014C29.1281 15.1235 29.1402 15.5192 29.1402 18.8659C29.1402 22.2125 29.1281 22.6082 29.0673 23.9303C29.0117 25.1522 28.8071 25.8163 28.6362 26.2576C28.4084 26.8427 28.1371 27.2601 27.6988 27.6981C27.2605 28.136 26.8424 28.4077 26.2573 28.6355C25.8162 28.8075 25.1519 29.011 23.93 29.0666C22.6091 29.1273 22.2122 29.1395 18.8656 29.1395C15.5189 29.1395 15.1232 29.1273 13.8026 29.0666M13.6989 6.40927C12.3647 6.47002 11.4531 6.68157 10.657 6.99136C9.83296 7.31128 9.13447 7.74048 8.43698 8.43686C7.7395 9.13324 7.3114 9.83183 6.99148 10.6568C6.68169 11.4535 6.47015 12.3646 6.40939 13.6987C6.34763 15.035 6.3335 15.4621 6.3335 18.8655C6.3335 22.2688 6.34763 22.696 6.40939 24.0322C6.47015 25.3664 6.68169 26.2774 6.99148 27.0741C7.3114 27.8981 7.7396 28.598 8.43698 29.2941C9.13437 29.9901 9.83195 30.4187 10.657 30.7396C11.4546 31.0493 12.3647 31.2609 13.6989 31.3216C15.0358 31.3824 15.4623 31.3975 18.8656 31.3975C22.2689 31.3975 22.6961 31.3834 24.0323 31.3216C25.3665 31.2609 26.2776 31.0493 27.0742 30.7396C27.8982 30.4187 28.5967 29.9904 29.2942 29.2941C29.9917 28.5977 30.4189 27.8981 30.7397 27.0741C31.0495 26.2774 31.262 25.3663 31.3218 24.0322C31.3825 22.695 31.3967 22.2688 31.3967 18.8655C31.3967 15.4621 31.3825 15.035 31.3218 13.6987C31.261 12.3645 31.0495 11.453 30.7397 10.6568C30.4189 9.83283 29.9906 9.13434 29.2942 8.43686C28.5978 7.73937 27.8982 7.31128 27.0752 6.99136C26.2776 6.68157 25.3664 6.46902 24.0333 6.40927C22.6969 6.34821 22.2699 6.33337 18.8671 6.33337C15.4643 6.33337 15.0363 6.34751 13.6994 6.40927" fill="white"/>
<defs>
<radialGradient id="paint0_radial_14322_8083" cx="0" cy="0" r="1" gradientUnits="userSpaceOnUse" gradientTransform="translate(2.45932 37.1675) scale(48.2459)">
<stop offset="0.09" stop-color="#FA8F21"/>
<stop offset="0.78" stop-color="#D82D7E"/>
</radialGradient>
<radialGradient id="paint1_radial_14322_8083" cx="0" cy="0" r="1" gradientUnits="userSpaceOnUse" gradientTransform="translate(26.3213 35.9474) scale(42.4568)">
<stop offset="0.64" stop-color="#8C3AAA" stop-opacity="0"/>
<stop offset="1" stop-color="#8C3AAA"/>
</radialGradient>
</defs>
</svg>
