<svg width="43" height="43" viewBox="0 0 43 43" fill="none" xmlns="http://www.w3.org/2000/svg">
<path fill-rule="evenodd" clip-rule="evenodd" d="M3.58399 18.7084H39.4163C39.4095 14.3003 39.3097 11.9998 37.8425 10.5327C36.2682 8.95837 33.7344 8.95837 28.6668 8.95837H14.3335C9.2659 8.95837 6.7321 8.95837 5.1578 10.5327C3.69064 11.9998 3.59079 14.3003 3.58399 18.7084ZM39.4168 20.7084H3.5835V25.0834C3.5835 30.151 3.5835 32.6848 5.1578 34.2591C6.7321 35.8334 9.26589 35.8334 14.3335 35.8334H14.3335H28.6668H28.6668C33.7344 35.8334 36.2682 35.8334 37.8425 34.2591C39.4168 32.6848 39.4168 30.151 39.4168 25.0834V20.7084ZM12.5418 27.6667C11.9895 27.6667 11.5418 28.1144 11.5418 28.6667C11.5418 29.219 11.9895 29.6667 12.5418 29.6667H12.5597C13.112 29.6667 13.5597 29.219 13.5597 28.6667C13.5597 28.1144 13.112 27.6667 12.5597 27.6667H12.5418Z" fill="#FF9CFB"/>
</svg>
