<svg width="18" height="18" viewBox="0 0 18 18" fill="none" xmlns="http://www.w3.org/2000/svg">
<g clip-path="url(#clip0_14322_11584)">
<path d="M17.1788 7.71406V6.30056C17.1789 5.93623 17.0808 5.57861 16.8949 5.26529C16.709 4.95197 16.4421 4.69452 16.1223 4.52L10.0383 1.20157C9.74052 1.03856 9.40647 0.953125 9.06695 0.953125C8.72743 0.953125 8.39338 1.03856 8.09555 1.20157L2.01165 4.52C1.69183 4.69452 1.42494 4.95197 1.23902 5.26529C1.05309 5.57861 0.955011 5.93623 0.955078 6.30056V7.71406H2.98305V13.798H1.63107V15.8259H0.955078V17.1779H17.1788V15.8259H16.5028V13.798H15.1509V7.71406H17.1788ZM10.4189 7.71406V13.798H7.71497V7.71406H10.4189ZM4.33502 7.71406H6.36299V13.798H4.33502V7.71406ZM13.7989 13.798H11.7709V7.71406H13.7989V13.798Z" fill="#9D9AF9"/>
</g>
<defs>
<clipPath id="clip0_14322_11584">
<rect width="16.2237" height="16.2237" fill="white" transform="translate(0.955078 0.954102)"/>
</clipPath>
</defs>
</svg>
