<svg width="24" height="24" viewBox="0 0 24 24" fill="none" xmlns="http://www.w3.org/2000/svg">
<path d="M21 12C21 16.9706 16.9706 21 12 21C7.02944 21 3 16.9706 3 12C3 7.02944 7.02944 3 12 3C16.9706 3 21 7.02944 21 12Z" fill="#9D9AF9"/>
<path d="M10.506 11.33C11.3927 11.2927 12.0227 11.1667 12.396 10.952C12.7693 10.728 12.956 10.4247 12.956 10.042C12.956 9.71533 12.844 9.468 12.62 9.3C12.396 9.12267 12.0787 9.034 11.668 9.034C11.276 9.034 10.9073 9.11333 10.562 9.272C10.226 9.43067 9.89467 9.67333 9.568 10L8.28 8.586C8.69067 8.138 9.17133 7.774 9.722 7.494C10.282 7.214 10.9447 7.074 11.71 7.074C12.214 7.074 12.6713 7.13933 13.082 7.27C13.502 7.39133 13.8613 7.578 14.16 7.83C14.4587 8.07267 14.6873 8.376 14.846 8.74C15.014 9.104 15.098 9.51933 15.098 9.986C15.098 10.434 15.0233 10.8213 14.874 11.148C14.734 11.4653 14.538 11.736 14.286 11.96C14.0433 12.184 13.754 12.366 13.418 12.506C13.082 12.6367 12.7227 12.7393 12.34 12.814L12.186 13.668H10.758L10.436 11.4L10.506 11.33ZM12.564 17H10.296V14.76H12.564V17Z" fill="#201D62"/>
</svg>
