<svg width="23" height="22" viewBox="0 0 23 22" fill="none" xmlns="http://www.w3.org/2000/svg">
<path d="M22.9914 20.3292C22.8705 20.7996 22.6539 21.2119 22.1876 21.4178C21.9513 21.5251 21.6959 21.5847 21.4361 21.5929C20.0451 21.6097 18.6546 21.6013 17.2636 21.6008C17.2276 21.6008 17.191 21.5924 17.1325 21.5857C17.1286 21.502 17.1218 21.4239 17.1218 21.3452C17.1218 19.4912 17.1218 17.6367 17.1162 15.7827C17.1162 15.5718 17.1809 15.5255 17.3811 15.5271C18.6372 15.5355 19.8943 15.555 21.1498 15.5238C22.1589 15.4987 22.7934 15.9328 22.9914 16.807V20.3292Z" fill="white"/>
<path d="M15.772 21.588H7.21484V21.3553C7.21484 17.9486 7.21484 14.5421 7.21484 11.1357C7.21484 10.3262 7.60859 9.77439 8.32126 9.58023C8.48011 9.53926 8.64367 9.519 8.80781 9.51998C10.5965 9.51588 12.3849 9.51588 14.1728 9.51998C14.9794 9.51998 15.5475 9.94456 15.7281 10.6688C15.7595 10.8135 15.7734 10.9615 15.7697 11.1095C15.772 14.5315 15.772 17.9534 15.7697 21.3754L15.772 21.588ZM10.9576 14.4364C10.9576 14.8694 10.9498 15.3146 10.9576 15.7587C10.959 15.9318 11.0292 16.0973 11.153 16.2192C11.2768 16.3412 11.4441 16.4097 11.6186 16.4098C11.705 16.4131 11.7912 16.3993 11.8723 16.3693C11.9533 16.3393 12.0275 16.2936 12.0906 16.2349C12.1537 16.1762 12.2045 16.1057 12.2399 16.0274C12.2753 15.9491 12.2947 15.8646 12.2969 15.7788C12.3082 14.851 12.3138 13.9231 12.2969 12.9959C12.2868 12.5105 11.7181 12.207 11.3081 12.4714C10.8788 12.7559 10.4657 13.0636 10.0706 13.3931C9.8636 13.5605 9.82422 13.8121 9.91085 14.066C10.0003 14.3304 10.1921 14.4906 10.4733 14.5095C10.6201 14.5196 10.7731 14.4666 10.9576 14.4364Z" fill="white"/>
<path d="M5.85247 21.6018H5.62747C4.2955 21.6018 2.96353 21.6018 1.63381 21.6018C0.981883 21.6018 0.458207 21.3714 0.171338 20.771C0.0672717 20.5497 0.0120417 20.3089 0.00934134 20.0647C-0.00303339 18.1795 -0.00134572 16.2942 0.00427916 14.409C0.00427916 13.4828 0.642703 12.8752 1.60793 12.8708C2.76047 12.8652 3.91413 12.8708 5.06498 12.8708H5.85865L5.85247 21.6018Z" fill="white"/>
<path d="M8.84894 6.37158C8.92206 5.94923 9.00025 5.451 9.09812 4.95668C9.13637 4.76363 9.10825 4.6275 8.95244 4.48913C8.61888 4.19176 8.30839 3.86927 7.98439 3.56074C7.73015 3.3186 7.62272 3.03015 7.7369 2.69428C7.85109 2.3584 8.11264 2.20999 8.44845 2.16201C8.89844 2.09785 9.34843 2.02811 9.80292 1.97567C9.87956 1.97207 9.95343 1.94611 10.0153 1.90105C10.0771 1.85599 10.1242 1.79383 10.1505 1.72236C10.3367 1.31787 10.5443 0.92397 10.7406 0.523935C10.8964 0.205358 11.127 -0.00330788 11.5022 3.96925e-05C11.8672 0.00338726 12.0922 0.209825 12.2441 0.520033C12.4466 0.933457 12.6575 1.34242 12.8544 1.75807C12.8761 1.81608 12.9142 1.86669 12.964 1.90388C13.0139 1.94107 13.0734 1.96328 13.1357 1.96785C13.5856 2.02365 14.0385 2.09673 14.4901 2.15532C14.8417 2.20051 15.1269 2.34222 15.2489 2.69037C15.371 3.03852 15.2422 3.33812 14.9744 3.58863C14.6426 3.8994 14.3259 4.22635 13.9912 4.53321C13.9403 4.5751 13.9027 4.63061 13.8828 4.69313C13.8628 4.75564 13.8614 4.82253 13.8787 4.88582C13.9631 5.34555 14.039 5.8064 14.1223 6.26613C14.1819 6.59308 14.1048 6.87595 13.8354 7.07903C13.566 7.28212 13.2549 7.29049 12.9495 7.13204C12.5192 6.90887 12.0872 6.68904 11.6614 6.4575C11.6128 6.42551 11.5559 6.40822 11.4975 6.40773C11.4392 6.40723 11.382 6.42355 11.3329 6.45471C10.9003 6.6896 10.4661 6.9217 10.0234 7.13762C9.4463 7.41881 8.83713 7.0556 8.84894 6.37158Z" fill="white"/>
</svg>
