<svg width="31" height="30" viewBox="0 0 31 30" fill="none" xmlns="http://www.w3.org/2000/svg">
<path fill-rule="evenodd" clip-rule="evenodd" d="M23.75 19.9381V17.5H20.3156C20.0225 17.5 19.876 17.5 19.7526 17.5123C18.5675 17.6301 17.6301 18.5675 17.5123 19.7526C17.5 19.876 17.5 20.0225 17.5 20.3156C17.5 20.6653 17.5 20.8401 17.5156 20.9789C17.6665 22.3261 18.8636 23.3075 20.2142 23.1913C20.3534 23.1793 20.5248 23.145 20.8677 23.0765L21.2379 23.0024C21.7135 22.9073 21.9512 22.8598 22.1519 22.7821C22.9706 22.4655 23.5633 21.7425 23.7132 20.8776C23.75 20.6656 23.75 20.4231 23.75 19.9381ZM11.25 22.4381V20H7.81556C7.52251 20 7.37598 20 7.25256 20.0123C6.06753 20.1301 5.13014 21.0675 5.01228 22.2526C5 22.376 5 22.5225 5 22.8156C5 23.1653 5 23.3401 5.01555 23.4789C5.16652 24.8261 6.36363 25.8075 7.71424 25.6913C7.85334 25.6793 8.02493 25.645 8.36774 25.5765L8.73786 25.5024C9.21344 25.4073 9.45124 25.3598 9.65187 25.2821C10.4706 24.9655 11.0633 24.2425 11.2133 23.3776C11.25 23.1656 11.25 22.9231 11.25 22.4381Z" fill="#9D9AF9"/>
<path d="M11.25 20V13.75M11.25 20V22.4381M11.25 20H7.81556M23.75 17.5V11.25M23.75 17.5V19.9381M23.75 17.5H20.3156M23.75 11.25L11.25 13.75M23.75 11.25V11.099M11.25 13.75V11.599M11.25 11.599C11.25 9.63683 11.25 8.65573 11.8166 7.96454C12.3833 7.27334 13.3453 7.08093 15.2694 6.69612M11.25 11.599V10.7792C11.25 9.20946 11.25 8.42459 11.7033 7.87163C12.1566 7.31867 12.9263 7.16475 14.4655 6.85689L15.2694 6.69612M11.25 11.599V22.4381M15.2694 6.69612L17.7694 6.19612M17.7694 6.19612C20.5364 5.64271 21.9199 5.36601 22.835 6.11615C23.75 6.8663 23.75 8.2772 23.75 11.099M17.7694 6.19612L18.9655 5.95689C21.1791 5.51417 22.286 5.29281 23.018 5.89292C23.75 6.49304 23.75 7.62176 23.75 9.87922V11.099M23.75 19.9381C23.75 20.4231 23.75 20.6656 23.7133 20.8776C23.5633 21.7425 22.9706 22.4655 22.1519 22.7821C21.9512 22.8598 21.7135 22.9073 21.2379 23.0024M23.75 19.9381V19.9381C23.75 20.8137 23.75 21.2515 23.6027 21.6138C23.4506 21.9877 23.189 22.3069 22.8521 22.5293C22.5258 22.7448 22.0965 22.8307 21.2379 23.0024V23.0024M21.2379 23.0024L20.8677 23.0765M20.8677 23.0765C20.5248 23.145 20.3534 23.1793 20.2142 23.1913C18.8636 23.3075 17.6665 22.3261 17.5156 20.9789C17.5 20.8401 17.5 20.6653 17.5 20.3156M20.8677 23.0765V23.0765C19.9791 23.2542 19.5348 23.343 19.1752 23.2838C18.4702 23.1678 17.8806 22.6845 17.6286 22.0159C17.5 21.6749 17.5 21.2218 17.5 20.3156V20.3156M17.5 20.3156C17.5 20.0225 17.5 19.876 17.5123 19.7526C17.6301 18.5675 18.5675 17.6301 19.7526 17.5123C19.876 17.5 20.0225 17.5 20.3156 17.5M17.5 20.3156V20.3156C17.5 19.5565 17.5 19.177 17.6017 18.8704C17.8005 18.2709 18.2709 17.8005 18.8704 17.6017C19.177 17.5 19.5565 17.5 20.3156 17.5V17.5M11.25 22.4381C11.25 22.9231 11.25 23.1656 11.2133 23.3776C11.0633 24.2425 10.4706 24.9655 9.65187 25.2821C9.45124 25.3598 9.21344 25.4073 8.73786 25.5024M11.25 22.4381V22.4381C11.25 23.3137 11.25 23.7515 11.1026 24.1139C10.9506 24.4877 10.689 24.8069 10.3522 25.0293C10.0258 25.2448 9.59647 25.3307 8.73786 25.5024V25.5024M8.73786 25.5024L8.36774 25.5765M8.36774 25.5765C8.02493 25.645 7.85334 25.6793 7.71424 25.6913C6.36363 25.8075 5.16652 24.8261 5.01555 23.4789C5 23.3401 5 23.1653 5 22.8156M8.36774 25.5765V25.5765C7.47914 25.7542 7.03484 25.843 6.6752 25.7838C5.97018 25.6678 5.38062 25.1845 5.12857 24.5159C5 24.1749 5 23.7218 5 22.8156V22.8156M5 22.8156C5 22.5225 5 22.376 5.01228 22.2526C5.13014 21.0675 6.06753 20.1301 7.25256 20.0123C7.37598 20 7.52251 20 7.81556 20M5 22.8156V22.8156C5 22.0565 5 21.677 5.1017 21.3704C5.30054 20.7709 5.77087 20.3005 6.37035 20.1017C6.67696 20 7.0565 20 7.81556 20V20" stroke="#9D9AF9" stroke-width="2"/>
<path d="M25.9265 4.17647C25.9265 3.11251 25.064 2.25 24 2.25C22.936 2.25 22.0735 3.11251 22.0735 4.17647L22.0735 6.07353L20.1765 6.07353C19.1125 6.07353 18.25 6.93604 18.25 8C18.25 9.06396 19.1125 9.92647 20.1765 9.92647H22.0735L22.0735 11.8235C22.0735 12.8875 22.936 13.75 24 13.75C25.064 13.75 25.9265 12.8875 25.9265 11.8235V9.92647H27.8235C28.8875 9.92647 29.75 9.06396 29.75 8C29.75 6.93604 28.8875 6.07353 27.8235 6.07353L25.9265 6.07353V4.17647Z" fill="#9D9AF9" stroke="#0B0931" stroke-width="1.5" stroke-linecap="round"/>
</svg>
