<svg width="24" height="24" viewBox="0 0 24 24" fill="none" xmlns="http://www.w3.org/2000/svg">
<path d="M15.7669 7.88436V6.89884C15.7669 4.72171 14.002 2.95679 11.8249 2.95679V2.95679C9.64773 2.95679 7.88281 4.7217 7.88281 6.89884V7.88436" stroke="#755EFF" stroke-width="1.97103" stroke-linecap="round"/>
<path fill-rule="evenodd" clip-rule="evenodd" d="M3.82298 7.76561C2.95703 8.63156 2.95703 10.0253 2.95703 12.8127V13.7983C2.95703 17.5149 2.95703 19.3732 4.11163 20.5278C5.26623 21.6824 7.12454 21.6824 10.8411 21.6824H12.8122C16.5288 21.6824 18.3871 21.6824 19.5417 20.5278C20.6963 19.3732 20.6963 17.5149 20.6963 13.7983V12.8127C20.6963 10.0253 20.6963 8.63156 19.8303 7.76561C18.9644 6.89966 17.5707 6.89966 14.7832 6.89966H8.87012C6.08266 6.89966 4.68893 6.89966 3.82298 7.76561ZM11.8261 14.784C12.3703 14.784 12.8116 14.3428 12.8116 13.7985C12.8116 13.2542 12.3703 12.813 11.8261 12.813C11.2818 12.813 10.8405 13.2542 10.8405 13.7985C10.8405 14.3428 11.2818 14.784 11.8261 14.784ZM14.7826 13.7985C14.7826 15.0857 13.96 16.1808 12.8117 16.5867V18.7266H10.8407V16.5868C9.69231 16.181 8.86951 15.0858 8.86951 13.7985C8.86951 12.1656 10.1932 10.8419 11.8261 10.8419C13.4589 10.8419 14.7826 12.1656 14.7826 13.7985Z" fill="#755EFF"/>
</svg>
