<svg width="16" height="13" viewBox="0 0 16 13" fill="none" xmlns="http://www.w3.org/2000/svg">
<path d="M6.91358 1.40541L3.85185 7.37838L2.32099 7.77992C2.4856 7.41184 2.68313 7.11068 2.91358 6.87645C3.17695 6.64221 3.47325 6.5251 3.80247 6.5251C4.49383 6.5251 5.11934 6.80952 5.67901 7.37838C6.27161 7.94723 6.5679 8.6834 6.5679 9.58687C6.5679 10.4903 6.23868 11.2934 5.58025 11.9961C4.95473 12.6654 4.19753 13 3.30864 13C2.41975 13 1.64609 12.6654 0.987654 11.9961C0.329218 11.3269 0 10.5238 0 9.58687C0 9.18533 0.0823045 8.73359 0.246914 8.23166C0.411523 7.69627 0.691358 7.02703 1.08642 6.22394L4.39506 0L6.91358 1.40541ZM16 1.40541L12.9383 7.37838L11.4074 7.77992C11.572 7.41184 11.7695 7.11068 12 6.87645C12.2634 6.64221 12.5597 6.5251 12.8889 6.5251C13.5802 6.5251 14.2058 6.80952 14.7654 7.37838C15.358 7.94723 15.6543 8.6834 15.6543 9.58687C15.6543 10.4903 15.3251 11.2934 14.6667 11.9961C14.0412 12.6654 13.284 13 12.3951 13C11.5062 13 10.7325 12.6654 10.0741 11.9961C9.41564 11.3269 9.08642 10.5238 9.08642 9.58687C9.08642 9.18533 9.16873 8.73359 9.33333 8.23166C9.49794 7.69627 9.77778 7.02703 10.1728 6.22394L13.4815 0L16 1.40541Z" fill="white" fill-opacity="0.2"/>
</svg>
